<?xml version="1.0" encoding="utf-8"?>
<!-- Generator: Adobe Illustrator 19.1.0, SVG Export Plug-In . SVG Version: 6.00 Build 0)  -->
<svg version="1.1" xmlns="http://www.w3.org/2000/svg" xmlns:xlink="http://www.w3.org/1999/xlink" x="0px" y="0px"
	 viewBox="0 0 600 600" style="enable-background:new 0 0 600 600;" xml:space="preserve">
<style type="text/css">
	.st0{fill:#FFFFFF;}
</style>
<g id="Tekst">
	<g>
		<path class="st0" d="M103,494.8c0,6.1,1.4,13.2,2,19.2h-0.3l-4.7-11.1L89.1,481H76v49h12v-14.5c0-6.1-0.9-13.5-1.5-18.5h0.3
			l4.7,11l10.9,22H116v-49h-13V494.8z"/>
		<polygon class="st0" points="163,530 195,530 195,519 176,519 176,510 192,510 192,499 176,499 176,491 195,491 195,481 163,481 
					"/>
		<path class="st0" d="M269,507.5c0,8.8-2.4,12-7.6,12c-5.1,0-7.4-3.2-7.4-12V481h-13v25c0,16.8,6.9,24.7,20.7,24.7
			S282,522.8,282,506v-25h-13V507.5z"/>
		<polygon class="st0" points="327,491 345.6,491 326,521.8 326,530 362,530 362,519 341.5,519 362,488.4 362,481 327,481 		"/>
		<polygon class="st0" points="406,530 438,530 438,519 419,519 419,510 435,510 435,499 419,499 419,491 438,491 438,481 406,481 
					"/>
		<path class="st0" d="M512,481v13.8c0,6.1,0.9,13.2,1.5,19.2h-0.3l-4.7-11.1L497.6,481H484v49h13v-14.5c0-6.1-1.4-13.5-2-18.5h0.3
			l4.7,11l10.9,22H524v-49H512z"/>
		<path class="st0" d="M506.8,62.5c0.1-0.2,0.2-0.5,0.2-0.7c0.1-0.2,0.2-0.4,0.2-0.5l0.5-1.4c0-0.1,0-0.1,0.1-0.2
			c0.4-1.5,0.5-3.5,0.5-4.6c0-15.8-21.2-28.6-63.1-38C406.6,8.4,355.1,3.6,300,3.6c-55.5,0-107.1,4.7-145.2,13.3
			C112.9,26.3,91.7,39,91.7,54.7c0,1.4,0.2,2.8,0.6,4.3l0.3,1c0,0.1,0,0.1,0,0.2l0.1,0.2c0.9,2.5,2.3,5.1,4,7.1l0.4,0.5l188.7,326.8
			c3,5.2,8.3,8.2,14.3,8.2c6,0,11.3-3.1,14.3-8.2L503.8,67.4C505,65.8,506,64.4,506.8,62.5z M302.2,387.8c-0.5,0.8-1.3,1.3-2.2,1.3
			c-0.9,0-1.7-0.5-2.2-1.3L121.7,82.9c34.5,13.7,97.9,22.3,170.4,22.9l3.8,0c2.8,0,5.6,0,8.4,0l3.9,0c1.1,0,2.1,0,3.1,0l0.3,0
			c70.5-0.9,132.6-9.6,166.8-23.1L302.2,387.8z M300,95.3c-76.4,0-147.1-9.9-178.6-24.3h357.3C447.1,85.4,376.4,95.3,300,95.3z
			 M105.7,57c0.6-4.9,12.5-15.1,53.7-24.6c38.4-8.8,88.4-13.7,140.6-13.7c53.3,0,102.8,4.4,139.4,12.3c39.1,8.5,54.2,20.2,54.9,26
			H105.7z"/>
	</g>
</g>
<g id="logo">
</g>
</svg>
