<?xml version="1.0" standalone="no"?>
<!DOCTYPE svg PUBLIC "-//W3C//DTD SVG 20010904//EN"
 "http://www.w3.org/TR/2001/REC-SVG-20010904/DTD/svg10.dtd">
<svg version="1.0" xmlns="http://www.w3.org/2000/svg"
 width="700.000000pt" height="700.000000pt" viewBox="0 0 700.000000 700.000000"
 preserveAspectRatio="xMidYMid meet">
<metadata>
Created by potrace 1.11, written by Peter Selinger 2001-2013
</metadata>
<g transform="translate(0.000000,700.000000) scale(0.100000,-0.100000)"
fill="#000000" stroke="none">
<path d="M6327 6494 c-1 -1 -59 -4 -130 -8 -70 -4 -133 -8 -140 -11 -6 -2 -48
-6 -92 -9 -44 -3 -89 -8 -100 -10 -19 -4 -74 -11 -155 -22 -168 -22 -546 -118
-665 -169 -16 -7 -57 -23 -90 -35 -96 -37 -325 -154 -442 -226 -99 -61 -251
-162 -263 -174 -3 -3 -32 -25 -65 -49 -57 -42 -195 -150 -205 -161 -3 -3 -17
-15 -32 -27 -144 -110 -538 -497 -736 -723 -31 -35 -64 -71 -72 -80 -8 -9 -40
-45 -70 -80 -30 -36 -69 -81 -86 -100 -18 -19 -54 -62 -82 -94 -28 -33 -59
-61 -69 -62 -10 -2 -74 -6 -143 -9 -69 -3 -150 -8 -180 -10 -30 -2 -118 -6
-195 -10 -77 -3 -162 -8 -190 -10 -27 -2 -111 -7 -185 -10 -74 -3 -166 -8
-205 -10 -38 -2 -119 -7 -180 -10 -186 -10 -216 -14 -248 -34 -23 -15 -63 -74
-146 -218 -62 -109 -129 -222 -147 -250 -19 -29 -34 -55 -34 -57 0 -3 -30 -57
-67 -120 -38 -63 -75 -127 -84 -143 -9 -15 -55 -93 -101 -173 -47 -80 -124
-212 -173 -295 -193 -328 -191 -324 -175 -377 16 -56 298 -337 338 -339 49 -2
76 2 137 21 33 10 96 30 140 44 44 14 132 41 195 60 63 19 187 57 275 84 155
48 354 109 385 118 10 2 214 -195 563 -544 l548 -549 -15 -49 c-13 -43 -80
-258 -191 -619 -19 -60 -50 -162 -70 -225 -20 -63 -38 -123 -40 -133 -2 -10
-7 -27 -10 -37 -13 -42 -14 -64 0 -96 14 -34 247 -274 298 -307 51 -33 96 -25
199 34 126 73 107 62 300 175 95 55 362 211 593 346 564 329 560 326 579 359
21 35 27 103 41 441 3 57 7 141 10 188 5 83 7 133 20 375 4 66 8 149 10 185 2
36 7 126 10 200 4 74 10 140 13 146 6 11 174 159 321 284 59 50 70 60 236 214
263 246 503 504 668 721 4 5 28 36 52 69 151 197 326 491 429 720 91 201 203
540 222 671 2 17 7 37 10 45 3 8 7 31 10 50 2 19 9 50 13 70 13 48 36 202 46
305 22 225 24 258 30 463 6 183 5 194 -14 226 -36 58 -68 66 -246 64 -86 -2
-157 -4 -158 -4z m-666 -906 c59 -27 138 -102 168 -159 67 -125 55 -288 -28
-399 -146 -195 -422 -205 -588 -22 -25 28 -77 122 -68 122 3 0 1 9 -6 21 -14
28 -14 143 1 198 17 63 43 108 96 164 103 109 282 141 425 75z"/>
</g>
</svg>
